<svg xmlns="http://www.w3.org/2000/svg" version="1.1" xmlns:xlink="http://www.w3.org/1999/xlink" xmlns:svgjs="http://svgjs.com/svgjs" width="1440" height="560" preserveAspectRatio="none" viewBox="0 0 1440 560">
    <g mask="url(&quot;#SvgjsMask1000&quot;)" fill="none">
        <rect width="100%" height="560" x="0" y="0" fill="#0e2a47"></rect>
        <path d="M0,568.798C107.509,568.735,212.483,528.853,298.009,463.711C379.774,401.434,418.821,304.071,466.864,213.209C517.975,116.545,599.389,24.213,587.888,-84.526C576.314,-193.963,493.543,-284.685,407.014,-352.679C329.079,-413.919,225.036,-414.631,130.38,-444.033C33.865,-474.012,-54.101,-535.816,-154.796,-527.188C-266.013,-517.659,-387.753,-483.308,-454.598,-393.912C-520.864,-305.29,-481.814,-181.054,-495.705,-71.272C-509.297,36.148,-572.851,142.913,-535.378,244.499C-497.325,347.657,-392.278,407.092,-298.233,464.059C-206.251,519.776,-107.541,568.861,0,568.798" fill="#0b2239"></path>
        <path d="M1440 960.861C1512.54 945.025 1571.8890000000001 902.405 1636.172 865.25 1704.013 826.039 1786.596 803.811 1827.429 736.933 1869.868 667.426 1860.355 581.138 1859.363 499.705 1858.233 406.921 1883.634 298.336 1821.25 229.64499999999998 1758.7930000000001 160.873 1645.15 191.06099999999998 1555.838 165.49099999999999 1467.347 140.156 1390.274 67.481 1299.105 80.156 1204.348 93.32900000000001 1124.2640000000001 159.877 1063.675 233.913 1004.079 306.735 969.601 397.52 962.585 491.358 955.848 581.462 987.454 667.3389999999999 1025.127 749.466 1062.746 831.4739999999999 1099.408 923.919 1179.799 964.881 1258.686 1005.077 1353.5 979.745 1440 960.861" fill="#113255"></path>
    </g>
    <defs>
        <mask id="SvgjsMask1000">
            <rect width="100%" height="560" fill="#ffffff"></rect>
        </mask>
    </defs>
</svg>